<?xml version="1.0" encoding="iso-8859-1"?>
<!-- Generator: Adobe Illustrator 19.0.0, SVG Export Plug-In . SVG Version: 6.00 Build 0)  -->
<svg version="1.1" id="Layer_1" xmlns="http://www.w3.org/2000/svg" xmlns:xlink="http://www.w3.org/1999/xlink" x="0px" y="0px"
	 viewBox="0 0 511.999 511.999" style="enable-background:new 0 0 511.999 511.999;" xml:space="preserve">
<g>
	<g>
		<path d="M509.63,61.169L450.685,2.224c-2.96-2.959-7.757-2.967-10.725-0.017L397.78,44.113c-1.731,1.72-2.531,4.167-2.149,6.577
			l2.656,16.765l-121.079,121.08c-36.209-18.754-79.742-14.765-107.63,13.121c-9.115,9.115-15.852,19.989-20.025,32.322
			c-4.411,13.038-16.476,21.952-30.02,22.181c-32.091,0.544-61.984,13.063-84.173,35.252
			c-48.646,48.646-46.644,129.801,4.464,180.909c26.383,26.383,60.768,39.678,94.561,39.678c31.667,0,62.815-11.681,86.348-35.215
			c22.188-22.188,34.709-52.082,35.253-84.173c0.229-13.544,9.143-25.608,22.181-30.02c12.332-4.172,23.207-10.91,32.321-20.024
			c27.888-27.888,31.876-71.422,13.122-107.631l121.079-121.08l16.765,2.655c2.425,0.387,4.892-0.429,6.614-2.186l41.616-42.469
			C512.6,68.883,512.575,64.115,509.63,61.169z M279.612,207.618c2.691,1.832,5.31,3.836,7.851,5.99l-65.712,65.712
			c-2.725-2.018-5.62-3.753-8.65-5.191L279.612,207.618z M298.237,224.322c2.271,2.653,4.374,5.392,6.292,8.209l-66.513,66.513
			c-1.505-3.17-3.341-6.19-5.479-9.024L298.237,224.322z M180.016,357.044c-3.454-1.029-6.786-2.571-9.878-4.624l51.509-51.509
			c2.034,3.051,3.591,6.371,4.635,9.867L180.016,357.044z M226.235,332.313c-1.751,5.762-4.901,11.042-9.28,15.42
			c-4.446,4.446-9.747,7.52-15.378,9.238L226.235,332.313z M117.859,429.934c0.002,0.002,0.003,0.003,0.005,0.005
			c0.002,0.002,0.003,0.003,0.005,0.005l3.578,3.578l-5.506,5.506l-42.824-42.824l5.506-5.506L117.859,429.934z M98.32,388.91
			l45.029-45.029c1.438,3.029,3.173,5.923,5.191,8.649l-43.3,43.3L98.32,388.91z M115.985,406.573l43.264-43.264
			c2.86,2.151,5.889,3.974,9.04,5.461l-45.052,45.052L115.985,406.573z M159.463,341.608c-1.905-2.94-3.38-6.119-4.378-9.462
			l46.282-46.283c3.343,0.999,6.522,2.472,9.462,4.379L159.463,341.608z M155.132,310.61c1.75-5.762,4.901-11.042,9.279-15.419
			c4.379-4.38,9.659-7.53,15.42-9.281L155.132,310.61z M299.744,331.825c-7.449,7.449-16.347,12.959-26.448,16.375
			c-19.104,6.464-32.166,24.208-32.504,44.155c-0.477,28.129-11.416,54.299-30.804,73.687
			c-42.723,42.724-114.239,40.719-159.422-4.464S3.381,344.879,46.103,302.157c19.388-19.388,45.557-30.327,73.687-30.804
			c19.947-0.338,37.691-13.401,44.155-32.505c3.417-10.101,8.927-18.999,16.375-26.447c13.565-13.565,31.679-20.235,50.497-20.235
			c11.716,0,23.698,2.612,35.026,7.733l-69.522,69.522c-1.861-0.198-3.741-0.307-5.638-0.307c-13.982,0-27.128,5.445-37.014,15.332
			c-9.887,9.887-15.332,23.032-15.332,37.015c0,1.897,0.109,3.777,0.307,5.637l-51.066,51.066l-3.583-3.583
			c-2.967-2.966-7.777-2.966-10.743,0l-16.249,16.249c-2.967,2.968-2.967,7.777,0,10.744l53.568,53.568
			c1.483,1.483,3.428,2.224,5.371,2.224c1.944,0,3.888-0.741,5.371-2.224l16.249-16.249c2.967-2.968,2.967-7.777,0-10.744
			l-3.583-3.583l51.093-51.093c1.865,0.2,3.738,0.31,5.61,0.31c13.405,0,26.809-5.103,37.014-15.307
			c9.887-9.888,15.332-23.033,15.332-37.015c0-1.897-0.109-3.777-0.307-5.638l69.541-69.541
			C325.614,275.801,321.757,309.812,299.744,331.825z M459.96,100.894l-16.718-2.648c-2.4-0.385-4.84,0.411-6.56,2.131
			L315.424,221.636c-1.991-2.765-4.133-5.462-6.423-8.079l109.977-109.976c2.967-2.968,2.967-7.777,0-10.744
			c-2.967-2.966-7.777-2.966-10.743,0l-110,110c-2.507-2.175-5.085-4.213-7.726-6.115l121.258-121.26
			c1.72-1.72,2.512-4.158,2.131-6.56l-2.653-16.75l34.05-33.83l48.273,48.273L459.96,100.894z"/>
	</g>
</g>
<g>
	<g>
		<path d="M84.185,298.084c-2.171-3.592-6.841-4.741-10.432-2.571c-50.698,30.651-49.107,80.412-49.015,82.515
			c0.179,4.075,3.539,7.248,7.583,7.248c0.103,0,0.208-0.003,0.312-0.007c4.18-0.168,7.438-3.7,7.285-7.881
			c-0.063-1.744-1.067-43.02,41.697-68.874C85.204,306.344,86.355,301.674,84.185,298.084z"/>
	</g>
</g>
<g>
</g>
<g>
</g>
<g>
</g>
<g>
</g>
<g>
</g>
<g>
</g>
<g>
</g>
<g>
</g>
<g>
</g>
<g>
</g>
<g>
</g>
<g>
</g>
<g>
</g>
<g>
</g>
<g>
</g>
</svg>
