<svg xmlns="http://www.w3.org/2000/svg" viewBox="0 0 512 512"><path d="M499.904 456.607H12.096C5.416 456.607 0 462.022 0 468.703c0 6.68 5.415 12.096 12.096 12.096h487.808c6.68 0 12.096-5.418 12.096-12.097 0-6.68-5.415-12.096-12.096-12.096zM468.37 88.305h-84.948c-6.68 0-12.096 5.417-12.096 12.096v82.24H310.57V43.298c0-6.68-5.418-12.096-12.097-12.096h-84.95c-6.68 0-12.096 5.418-12.096 12.097V272.18H140.67V169.36c0-6.68-5.417-12.096-12.096-12.096H43.626c-6.68 0-12.096 5.415-12.096 12.096v231.563c0 6.68 5.417 12.096 12.096 12.096H468.37c6.68 0 12.095-5.418 12.095-12.097V100.4c0-6.678-5.414-12.095-12.095-12.095zM116.48 388.827H55.72v-207.37h60.757v207.37zm84.95 0H140.67V296.37h60.757v92.457zm84.948-194.09v194.09H225.62V55.393h60.758v139.344zm84.95 194.09H310.57V206.833h60.758v181.994zm84.948 0H395.52v-276.33h60.757v276.33z"/></svg>