<?xml version="1.0" encoding="iso-8859-1"?>
<!-- Generator: Adobe Illustrator 18.0.0, SVG Export Plug-In . SVG Version: 6.00 Build 0)  -->
<!DOCTYPE svg PUBLIC "-//W3C//DTD SVG 1.1//EN" "http://www.w3.org/Graphics/SVG/1.1/DTD/svg11.dtd">
<svg version="1.1" id="Capa_1" xmlns="http://www.w3.org/2000/svg" xmlns:xlink="http://www.w3.org/1999/xlink" x="0px" y="0px"
	 viewBox="0 0 350 350" style="enable-background:new 0 0 350 350;" xml:space="preserve">
<g>
	<path d="M335,80h-75V25c0-8.284-6.716-15-15-15H15C6.716,10,0,16.716,0,25v176.334c0,8.284,6.716,15,15,15h21V255
		c0,5.593,3.112,10.722,8.073,13.305c2.18,1.135,4.557,1.695,6.926,1.695c3.023,0,6.034-0.913,8.604-2.711L90,246.01v25.324
		c0,8.284,6.716,15,15,15h102.605l72.793,50.955c2.569,1.798,5.579,2.711,8.603,2.711c2.369,0,4.747-0.56,6.926-1.695
		C300.888,335.722,304,330.594,304,325v-38.666h31c8.284,0,15-6.716,15-15V95C350,86.716,343.284,80,335,80z M66,226.19v-24.856
		c0-8.284-6.716-15-15-15H30V40h200v40H105c-8.284,0-15,6.716-15,15v114.389L66,226.19z M320,256.334h-31c-8.284,0-15,6.716-15,15
		v24.856l-53.064-37.145c-2.521-1.765-5.524-2.711-8.602-2.711H120V110h200V256.334z"/>
	<path d="M165,165c-3.95,0-7.811,1.6-10.61,4.39c-2.79,2.8-4.39,6.66-4.39,10.61c0,3.95,1.6,7.81,4.39,10.61
		c2.8,2.79,6.66,4.39,10.61,4.39s7.81-1.6,10.609-4.39c2.79-2.8,4.391-6.66,4.391-10.61c0-3.95-1.601-7.81-4.391-10.61
		C172.81,166.6,168.95,165,165,165z"/>
	<path d="M220,165c-3.95,0-7.811,1.6-10.61,4.39c-2.79,2.8-4.39,6.66-4.39,10.61c0,3.95,1.6,7.81,4.39,10.61
		c2.79,2.79,6.66,4.39,10.61,4.39s7.81-1.6,10.609-4.39c2.79-2.8,4.391-6.66,4.391-10.61c0-3.95-1.601-7.81-4.391-10.61
		C227.81,166.6,223.95,165,220,165z"/>
	<path d="M275,195c3.95,0,7.81-1.6,10.609-4.39c2.79-2.79,4.391-6.66,4.391-10.61c0-3.95-1.601-7.82-4.391-10.61
		C282.81,166.6,278.95,165,275,165s-7.81,1.6-10.61,4.39c-2.79,2.79-4.39,6.66-4.39,10.61c0,3.95,1.6,7.82,4.39,10.61
		C267.19,193.4,271.05,195,275,195z"/>
</g>
<g>
</g>
<g>
</g>
<g>
</g>
<g>
</g>
<g>
</g>
<g>
</g>
<g>
</g>
<g>
</g>
<g>
</g>
<g>
</g>
<g>
</g>
<g>
</g>
<g>
</g>
<g>
</g>
<g>
</g>
</svg>
