<?xml version="1.0" encoding="iso-8859-1"?>
<!-- Generator: Adobe Illustrator 19.0.0, SVG Export Plug-In . SVG Version: 6.00 Build 0)  -->
<svg version="1.1" id="Capa_1" xmlns="http://www.w3.org/2000/svg" xmlns:xlink="http://www.w3.org/1999/xlink" x="0px" y="0px"
	 viewBox="0 0 512 512" style="enable-background:new 0 0 512 512;" xml:space="preserve">
<g>
	<g>
		<path d="M482,196.041V75.001C482,50.187,461.813,30,437,30s-45,20.187-45,45v48.58c-4.695-1.665-9.742-2.58-15-2.58
			c-5.857,0-11.449,1.137-16.586,3.181C355.209,105.085,337.723,91,317,91c-5.258,0-10.305,0.915-15,2.58V45
			c0-24.813-20.187-45-45-45s-45,20.187-45,45c0,6.186,0,128.972,0,136h-77.041c-10.824-14.386-26.694-24.768-44.959-28.491V151
			c0-8.284-6.716-15-15-15s-15,6.716-15,15v1.509C25.808,159.477,0,189.78,0,226v60c0,36.219,25.808,66.522,60,73.491V361
			c0,8.284,6.716,15,15,15s15-6.716,15-15v-1.509c18.265-3.722,34.135-14.105,44.959-28.491h53.844
			c7.708,26.001,21.811,49.827,41.524,69.541c6.186,6.186,10.251,14.953,11.357,24.147C224.389,430.967,212,447.563,212,467
			c0,24.813,20.187,45,45,45h150c24.813,0,45-20.187,45-45c0-19.437-12.389-36.033-29.684-42.313
			c1.106-9.194,5.17-17.96,11.357-24.147c22.628-22.628,37.969-50.854,44.639-81.987C498.593,305.115,512,282.098,512,256
			C512,231.516,500.204,209.738,482,196.041z M60,328.42c-17.459-6.192-30-22.865-30-42.42v-60c0-19.555,12.541-36.227,30-42.42
			V328.42z M120,286c0,19.555-12.541,36.227-30,42.419V183.58c17.459,6.192,30,22.865,30,42.42V286z M422,75c0-8.271,6.729-15,15-15
			s15,6.729,15,15.001v107.508c-4.848-0.988-9.864-1.509-15-1.509h-15C422,169.665,422,88.003,422,75z M362,166
			c0-8.271,6.729-15,15-15s15,6.729,15,15v60c0,8.271-6.729,15-15,15s-15-6.729-15-15V166z M302,136c0-8.271,6.729-15,15-15
			s15,6.729,15,15v47.58c-4.695-1.665-9.742-2.58-15-2.58h-15V136z M242,45c0-8.271,6.729-15,15-15s15,6.729,15,15v136h-15
			c-5.136,0-10.152,0.521-15,1.509C242,180.686,242,47.595,242,45z M182,256v27.868c0,5.762,0.301,11.477,0.88,17.132h-34.389
			c0.988-4.848,1.509-9.864,1.509-15v-60c0-5.136-0.521-10.152-1.509-15h48.55C187.603,223.544,182,239.129,182,256z M407,482H257
			c-8.271,0-15-6.729-15-15s6.729-15,15-15h150c8.271,0,15,6.729,15,15S415.271,482,407,482z M412.46,379.328
			c-11.049,11.049-18.245,26.584-20.018,42.673H271.559c-1.774-16.089-8.969-31.623-20.019-42.673
			c-26.085-26.086-39.54-60.272-39.54-95.46V256c0-24.813,20.187-45,45-45h60c8.271,0,15,6.729,15,15s-6.729,15-15,15h-60
			c-8.284,0-15,6.716-15,15s6.716,15,15,15c24.813,0,45,20.187,45,45v30c0,8.284,6.716,15,15,15s15-6.716,15-15v-15h105
			c2.235,0,4.443-0.117,6.629-0.309C436.931,348.869,426.39,365.398,412.46,379.328z M437,301H330.486
			c-2.258-11.077-6.958-21.276-13.521-30H317c3.877,0,7.641-0.493,11.233-1.419c7.078-1.825,13.482-5.339,18.767-10.076
			c7.968,7.141,18.483,11.495,30,11.495c24.813,0,45-20.187,45-45v-15h15c24.813,0,45,20.187,45,45S461.813,301,437,301z"/>
	</g>
</g>
<g>
</g>
<g>
</g>
<g>
</g>
<g>
</g>
<g>
</g>
<g>
</g>
<g>
</g>
<g>
</g>
<g>
</g>
<g>
</g>
<g>
</g>
<g>
</g>
<g>
</g>
<g>
</g>
<g>
</g>
</svg>
