<?xml version="1.0" encoding="iso-8859-1"?>
<!-- Generator: Adobe Illustrator 16.0.0, SVG Export Plug-In . SVG Version: 6.00 Build 0)  -->
<!DOCTYPE svg PUBLIC "-//W3C//DTD SVG 1.1//EN" "http://www.w3.org/Graphics/SVG/1.1/DTD/svg11.dtd">
<svg version="1.1" id="Capa_1" xmlns="http://www.w3.org/2000/svg" xmlns:xlink="http://www.w3.org/1999/xlink" x="0px" y="0px"
	 width="47px" height="47px" viewBox="0 0 47 47" style="enable-background:new 0 0 47 47;" xml:space="preserve">
<g>
	<path d="M40.508,25.355h-0.311v-1.58c0.738-0.428,1.238-1.216,1.238-2.13c0-9.888-8.045-17.934-17.935-17.934
		c-9.889,0-17.935,8.046-17.935,17.935c0,0.914,0.5,1.702,1.237,2.131v1.58h-0.31C2.913,25.357,0,28.685,0,32.775v2.477
		c0,4.092,2.913,7.42,6.493,7.42h2.89l0.256,0.256c0.241,0.241,0.558,0.362,0.874,0.362c0.317,0,0.634-0.121,0.875-0.362
		c0.285-0.285,0.382-0.673,0.33-1.044c0.214-0.302,0.342-0.669,0.342-1.067V27.21c0-1.025-0.831-1.855-1.855-1.855H9.277v-1.58
		c0.736-0.428,1.236-1.216,1.236-2.13c0-7.161,5.826-12.987,12.987-12.987s12.986,5.826,12.986,12.987c0,0.914,0.5,1.702,1.236,2.13
		v1.58h-0.928c-1.023,0-1.855,0.83-1.855,1.855v13.605c0,0.397,0.129,0.766,0.342,1.066c-0.051,0.371,0.046,0.758,0.33,1.044
		c0.242,0.241,0.559,0.362,0.875,0.362s0.634-0.121,0.875-0.362l0.256-0.256h2.89c3.58,0,6.493-3.328,6.493-7.42v-2.476
		C47.001,28.685,44.088,25.355,40.508,25.355z"/>
</g>
<g>
</g>
<g>
</g>
<g>
</g>
<g>
</g>
<g>
</g>
<g>
</g>
<g>
</g>
<g>
</g>
<g>
</g>
<g>
</g>
<g>
</g>
<g>
</g>
<g>
</g>
<g>
</g>
<g>
</g>
</svg>
