<svg xmlns="http://www.w3.org/2000/svg" viewBox="0 0 440.572 440.572"><path d="M175.53 158.983c18.698 0 36.255-7.537 49.44-21.222 11.37-11.804 24.635-33.626 23.254-70.552-1.43-38.146-28.364-59.55-57.082-65.844-.548-.167-16.126-3.21-32.876.37-28.092 6.747-54.026 28.062-55.424 65.475-1.382 36.925 11.882 58.747 23.253 70.552 13.182 13.684 30.74 21.22 49.436 21.22zm35.034-35.098c-9.378 9.736-21.82 15.098-35.033 15.098s-25.653-5.36-35.03-15.098c-8.492-8.814-14.028-20.62-16.412-34.747.55.013 1.1.046 1.65.046 14.465 0 28.71-4.632 40.605-13.447 1.396-1.034 2.736-2.136 4.05-3.27 12.683 10.92 28.542 16.735 44.69 16.735 4.017 0 8.05-.382 12.056-1.11-2.284 14.588-7.876 26.763-16.576 35.793zM228.2 67.34c-15.513 4.437-32.185.71-44.64-9.916 6.354-9.606 10.793-20.98 13.1-33.642 16.89 6.628 30.454 20.86 31.54 43.56zm-51.087-47.823c-3.022 17.357-10.89 31.417-22.677 40.15-9.22 6.834-20.42 10.115-31.63 9.427.012-.382.49-7.205 1.048-10.004 4.563-22.836 23.1-35.355 43.04-38.76 2.862-.488 9.692-.847 10.22-.813zM346.41 340.572h-10.96l.01-67.724c0-3.162-1.495-6.168-4.033-8.056-2.538-1.887-5.82-2.477-8.848-1.565l-102.942 30.965c-4.226 1.27-7.12 5.158-7.12 9.572l-.007 77.565c0 .032-.004.064-.004.097s.005.065.005.097l-.004 49.728c0 .094.01-.007.014.084.12 9.24 10.088 9.236 10.088 9.236h20.865c17.074 0 30.96-13.633 30.96-31.228v-6.01c0-17.595-13.886-32.763-30.96-32.763h-10.96l.005-59.802 82.94-24.742-.01 64.185c0 .047-.006.144-.006.19l.002.16-.012 49.705v.012c0 .05.567 4.236 2.586 6.075 2.845 3.427 7.588 3.22 7.588 3.22h20.804c17.074 0 31.02-13.603 31.02-31.197v-6.012c.002-17.592-13.945-31.788-31.02-31.788zm-102.937 50c6.046 0 10.96 6.196 10.96 12.763v6.01c0 6.566-4.914 11.228-10.96 11.228h-10.966l.003-30h10.963zm113.96-12.198c0 6.565-4.977 11.198-11.022 11.198h-10.966l.004-29h10.963c6.047 0 11.022 5.225 11.022 11.79v6.012zM220.222 212.58l-18.035 22.574c-1.975 2.472-4.883 3.758-7.82 3.758-2.187 0-4.39-.715-6.234-2.188-4.314-3.447-5.018-9.74-1.57-14.055l15.107-18.91c-8.594-2.73-17.693-4.06-26.53-4.06-8.62 0-17.494 1.263-25.903 3.857l15.266 19.11c3.446 4.314 2.743 10.602-1.572 14.05-1.842 1.47-4.045 2.176-6.233 2.176-2.937 0-5.846-1.305-7.82-3.778l-18.303-22.95c-12.003 7.907-21.155 19.42-24.13 35.485l-21.29 114.922h89.877c5.523 0 10 4.477 10 10 0 5.522-4.477 10-10 10H73.14c-2.97 0-5.786-.98-7.687-3.262-1.9-2.282-2.687-5.046-2.147-7.967l23.468-127.036c3.758-20.282 15.207-37.168 33.11-48.88 15.523-10.156 35.144-15.737 55.248-15.737 20.112 0 39.733 5.6 55.255 15.754 17.905 11.714 29.355 28.626 33.11 48.902 1.006 5.43-2.58 10.65-8.012 11.656-5.422.997-10.647-2.58-11.654-8.01-2.932-15.834-11.86-27.508-23.608-35.412z"/></svg>