<?xml version="1.0" encoding="iso-8859-1"?>
<!-- Generator: Adobe Illustrator 19.0.0, SVG Export Plug-In . SVG Version: 6.00 Build 0)  -->
<svg version="1.1" id="Capa_1" xmlns="http://www.w3.org/2000/svg" xmlns:xlink="http://www.w3.org/1999/xlink" x="0px" y="0px"
	 viewBox="0 0 443.507 443.507" style="enable-background:new 0 0 443.507 443.507;" xml:space="preserve">
<g>
	<path d="M429.214,64.404c-4.954-2.914-11.364-3.205-16.609-0.583l-113.35,55.655c-9.033,1.166-15.735,8.742-15.444,17.775
		l5.536,170.753c-9.907-4.079-20.98-6.411-33.218-6.411c-11.073,0-22.145,1.748-32.927,5.245
		c-44.874,14.278-71.681,52.158-60.9,86.251c7.867,24.477,33.801,40.503,66.436,40.503c11.073,0,22.145-1.748,32.927-5.245
		c40.503-12.821,66.145-44.582,63.231-75.469c0.583-1.748,0.874-3.788,0.874-6.119l-3.205-101.986l110.436-48.953
		c6.702-2.914,10.781-9.616,10.49-16.901l-5.245-100.237C437.665,72.563,434.459,67.318,429.214,64.404z M251.176,394.838
		c-7.576,2.331-15.152,3.497-22.437,3.497c-16.901,0-30.304-6.411-33.218-16.026c-4.079-12.821,10.49-33.51,38.172-42.251
		c7.576-2.331,15.152-3.497,22.437-3.497c16.9,0,30.304,6.411,33.218,16.026C293.428,365.699,278.858,386.096,251.176,394.838z
		 M321.109,206.893l-1.748-58.278l85.085-41.668l3.205,61.774L321.109,206.893z M305.957,44.881H17.483
		C7.867,44.881,0,37.014,0,27.398S7.867,9.915,17.483,9.915h288.474c9.616,0,17.483,7.867,17.483,17.483
		S315.573,44.881,305.957,44.881z M221.455,129.384c0,9.616-7.867,17.483-17.483,17.483H17.483C7.867,146.867,0,138.999,0,129.384
		c0-9.616,7.867-17.483,17.483-17.483h186.488C213.587,111.9,221.455,119.768,221.455,129.384z M221.455,228.455
		c0,9.616-7.867,17.483-17.483,17.483H17.483C7.867,245.939,0,238.071,0,228.455c0-9.616,7.867-17.483,17.483-17.483h186.488
		C213.587,210.972,221.455,218.84,221.455,228.455z"/>
</g>
<g>
</g>
<g>
</g>
<g>
</g>
<g>
</g>
<g>
</g>
<g>
</g>
<g>
</g>
<g>
</g>
<g>
</g>
<g>
</g>
<g>
</g>
<g>
</g>
<g>
</g>
<g>
</g>
<g>
</g>
</svg>
