<?xml version="1.0" encoding="iso-8859-1"?>
<!-- Generator: Adobe Illustrator 19.0.0, SVG Export Plug-In . SVG Version: 6.00 Build 0)  -->
<svg version="1.1" id="Capa_1" xmlns="http://www.w3.org/2000/svg" xmlns:xlink="http://www.w3.org/1999/xlink" x="0px" y="0px"
	 viewBox="0 0 512.001 512.001" style="enable-background:new 0 0 512.001 512.001;" xml:space="preserve">
<g>
	<g>
		<path d="M477.199,267.257l-35.593-64.428c-0.032-7.822-0.21-31.408-0.572-36.273c-0.01-0.121-0.021-0.241-0.034-0.362
			l-1.542-13.866c-0.013-0.117-0.027-0.233-0.045-0.349c-6.946-47.246-30.585-86.393-68.36-113.21
			C335.897,13.811,290.065,0.407,238.51,0.006C237.968,0.002,237.438,0,236.896,0C125.185,0,33.415,90.369,31.992,202.182
			C30.914,286.833,81.921,363.1,159.764,394.673l-17.944,84.458c-0.579,2.726,0.005,5.57,1.612,7.846s4.092,3.779,6.855,4.145
			l156.83,20.791c0.444,0.059,0.886,0.088,1.322,0.088c4.462,0,8.461-2.989,9.648-7.402l20.662-76.78
			c1.488,0.138,3.138,0.288,4.919,0.447c9.233,0.83,20.89,1.832,29.041,2.527c7.038,0.6,42.238,3.59,44.086,3.59
			c7.657,0,14.692-2.939,19.809-8.274c4.905-5.115,7.467-11.837,7.229-18.95V303.533l17.036-2.899
			c7.285-1.146,13.57-5.773,16.828-12.394C480.969,281.588,480.784,273.745,477.199,267.257z M459.752,279.41
			c-0.282,0.573-0.858,1.293-2.003,1.468c-0.056,0.008-0.111,0.018-0.167,0.027l-25.426,4.327c-4.807,0.818-8.322,4.983-8.322,9.858
			v112.253c0,0.14,0.003,0.28,0.009,0.42c0.092,2.183-0.859,3.653-1.674,4.503c-1.268,1.321-3.098,2.068-5.17,2.114
			c-5.696-0.356-77.168-6.371-83.763-7.199c-1.286-0.253-2.626-0.254-3.953,0.02c-3.698,0.765-6.65,3.547-7.632,7.194
			l-20.598,76.539l-137.425-18.219l15.433-72.638l69.061,13.485c0.648,0.127,1.291,0.188,1.927,0.188
			c4.688,0,8.872-3.313,9.804-8.085c1.059-5.42-2.478-10.673-7.898-11.731l-77.929-15.217
			c-74.025-26.724-123.04-97.471-122.036-176.281C53.274,101.537,136.08,20,236.898,20c0.482,0,0.974,0.002,1.456,0.005
			C337.98,20.781,407.413,72.391,419.6,154.717l1.5,13.485c0.199,3.036,0.355,15.118,0.44,24.801h-21.444c-5.522,0-10,4.477-10,10
			s4.478,10,10,10h24.282l35.315,63.925C460.253,277.941,460.034,278.837,459.752,279.41z"/>
	</g>
</g>
<g>
	<g>
		<path stroke-width="30"  d="M299.195,409.35c-0.129-0.64-0.329-1.27-0.579-1.87c-0.25-0.61-0.55-1.19-0.909-1.73c-0.37-0.55-0.79-1.06-1.25-1.52
			c-2.32-2.32-5.771-3.39-9.021-2.73c-0.64,0.13-1.27,0.32-1.87,0.57c-0.609,0.25-1.189,0.56-1.729,0.92
			c-0.55,0.36-1.061,0.78-1.521,1.24c-0.46,0.46-0.88,0.97-1.24,1.52c-0.359,0.54-0.67,1.12-0.92,1.73
			c-0.25,0.6-0.439,1.23-0.569,1.87c-0.13,0.64-0.2,1.3-0.2,1.95s0.07,1.31,0.2,1.96c0.13,0.63,0.319,1.26,0.569,1.87
			c0.25,0.6,0.561,1.18,0.92,1.72c0.36,0.55,0.78,1.06,1.24,1.52c0.46,0.461,0.971,0.88,1.521,1.25c0.54,0.36,1.12,0.67,1.729,0.92
			c0.601,0.25,1.23,0.44,1.87,0.57s1.3,0.19,1.95,0.19c2.63,0,5.21-1.06,7.07-2.93c0.46-0.46,0.88-0.97,1.25-1.52
			c0.359-0.54,0.659-1.12,0.909-1.72c0.25-0.61,0.45-1.24,0.58-1.87c0.12-0.65,0.19-1.31,0.19-1.96
			C299.385,410.65,299.315,409.99,299.195,409.35z"/>
	</g>
</g>
<g>
	<g>
		<path d="M224.968,44.5c-84.419,0-153.099,68.68-153.099,153.099s68.68,153.099,153.099,153.099s153.099-68.68,153.099-153.099
			S309.387,44.5,224.968,44.5z M224.968,330.697c-73.391,0-133.099-59.708-133.099-133.099S151.577,64.499,224.968,64.499
			s133.099,59.708,133.099,133.099S298.359,330.697,224.968,330.697z"/>
	</g>
</g>
<g>
	<g>
		<path d="M332.365,159.935l-37.625-37.626c-1.874-1.874-4.418-2.928-7.07-2.928c-2.652,0-5.195,1.054-7.071,2.929l-75.679,75.678
			l-35.58-35.581c-3.905-3.905-10.235-3.905-14.143-0.001l-37.626,37.626c-3.89,3.89-3.907,10.19-0.04,14.102l79.819,80.737
			c1.871,1.893,4.421,2.961,7.083,2.969c0.01,0,0.018,0,0.028,0c2.651,0,5.195-1.053,7.071-2.929l120.833-120.834
			C336.27,170.172,336.27,163.84,332.365,159.935z M204.502,273.658l-65.758-66.514l23.524-23.524l35.58,35.581
			c3.906,3.906,10.236,3.906,14.143,0.001l75.679-75.678l23.483,23.484L204.502,273.658z"/>
	</g>
</g>
<g>
</g>
<g>
</g>
<g>
</g>
<g>
</g>
<g>
</g>
<g>
</g>
<g>
</g>
<g>
</g>
<g>
</g>
<g>
</g>
<g>
</g>
<g>
</g>
<g>
</g>
<g>
</g>
<g>
</g>
</svg>
